{
    "asset": {
        "version": "2.0",
        "generator": "Open Asset Import Library (assimp v5.0.0)"
    },
    "extensionsUsed": [
        "KHR_materials_volume",
        "FB_ngon_encoding"
    ],
    "accessors": [
        {
            "bufferView": 0,
            "byteOffset": 0,
            "componentType": 5126,
            "count": 25372,
            "type": "VEC3",
            "max": [
                0.028615999966859819,
                0.028617000207304956,
                0.028617000207304956
            ],
            "min": [
                -0.028617000207304956,
                -0.028615999966859819,
                -0.028617000207304956
            ]
        },
        {
            "bufferView": 1,
            "byteOffset": 0,
            "componentType": 5126,
            "count": 25372,
            "type": "VEC3",
            "max": [
                0.9971228241920471,
                0.9971228241920471,
                0.9971228241920471
            ],
            "min": [
                -0.9971228241920471,
                -0.9971228241920471,
                -0.9971228241920471
            ]
        },
        {
            "bufferView": 2,
            "byteOffset": 0,
            "componentType": 5125,
            "count": 53028,
            "type": "SCALAR",
            "max": [
                25371
            ],
            "min": [
                0
            ]
        },
        {
            "bufferView": 3,
            "byteOffset": 0,
            "componentType": 5126,
            "count": 45,
            "type": "VEC3",
            "max": [
                0.028615999966859819,
                0.028617000207304956,
                0.026882000267505647
            ],
            "min": [
                -0.028617000207304956,
                -0.028615999966859819,
                -0.028617000207304956
            ]
        },
        {
            "bufferView": 4,
            "byteOffset": 0,
            "componentType": 5126,
            "count": 45,
            "type": "VEC3",
            "max": [
                0.9971228241920471,
                0.9971120953559876,
                0.065097376704216
            ],
            "min": [
                -0.9971228241920471,
                -0.9971228241920471,
                -0.9971228241920471
            ]
        },
        {
            "bufferView": 5,
            "byteOffset": 0,
            "componentType": 5125,
            "count": 54,
            "type": "SCALAR",
            "max": [
                44
            ],
            "min": [
                0
            ]
        },
        {
            "bufferView": 6,
            "byteOffset": 0,
            "componentType": 5126,
            "count": 45,
            "type": "VEC3",
            "max": [
                0.028615999966859819,
                0.028617000207304956,
                0.028617000207304956
            ],
            "min": [
                -0.028617000207304956,
                -0.028615999966859819,
                -0.028617000207304956
            ]
        },
        {
            "bufferView": 7,
            "byteOffset": 0,
            "componentType": 5126,
            "count": 45,
            "type": "VEC3",
            "max": [
                0.995766282081604,
                0.9971120953559876,
                0.995766282081604
            ],
            "min": [
                -0.995766282081604,
                -0.995766282081604,
                -0.9971228241920471
            ]
        },
        {
            "bufferView": 8,
            "byteOffset": 0,
            "componentType": 5125,
            "count": 54,
            "type": "SCALAR",
            "max": [
                44
            ],
            "min": [
                0
            ]
        },
        {
            "bufferView": 9,
            "byteOffset": 0,
            "componentType": 5126,
            "count": 45,
            "type": "VEC3",
            "max": [
                0.028615999966859819,
                0.028617000207304956,
                0.028617000207304956
            ],
            "min": [
                -0.028617000207304956,
                -0.028615999966859819,
                -0.028617000207304956
            ]
        },
        {
            "bufferView": 10,
            "byteOffset": 0,
            "componentType": 5126,
            "count": 45,
            "type": "VEC3",
            "max": [
                0.995766282081604,
                0.995766282081604,
                0.9957533478736877
            ],
            "min": [
                -0.995766282081604,
                -0.995759904384613,
                -0.9957396388053894
            ]
        },
        {
            "bufferView": 11,
            "byteOffset": 0,
            "componentType": 5125,
            "count": 54,
            "type": "SCALAR",
            "max": [
                44
            ],
            "min": [
                0
            ]
        },
        {
            "bufferView": 12,
            "byteOffset": 0,
            "componentType": 5126,
            "count": 45,
            "type": "VEC3",
            "max": [
                0.028615999966859819,
                0.028617000207304956,
                0.028617000207304956
            ],
            "min": [
                -0.028617000207304956,
                -0.028615999966859819,
                -0.028617000207304956
            ]
        },
        {
            "bufferView": 13,
            "byteOffset": 0,
            "componentType": 5126,
            "count": 45,
            "type": "VEC3",
            "max": [
                0.9971120953559876,
                0.995766282081604,
                0.9957396388053894
            ],
            "min": [
                -0.9971120953559876,
                -0.995759904384613,
                -0.9957396388053894
            ]
        },
        {
            "bufferView": 14,
            "byteOffset": 0,
            "componentType": 5125,
            "count": 54,
            "type": "SCALAR",
            "max": [
                44
            ],
            "min": [
                0
            ]
        },
        {
            "bufferView": 15,
            "byteOffset": 0,
            "componentType": 5126,
            "count": 45,
            "type": "VEC3",
            "max": [
                0.028615999966859819,
                0.028617000207304956,
                0.028617000207304956
            ],
            "min": [
                -0.028617000207304956,
                -0.028615999966859819,
                -0.028617000207304956
            ]
        },
        {
            "bufferView": 16,
            "byteOffset": 0,
            "componentType": 5126,
            "count": 45,
            "type": "VEC3",
            "max": [
                0.995759904384613,
                0.995766282081604,
                0.9957533478736877
            ],
            "min": [
                -0.995759904384613,
                -0.995759904384613,
                -0.9957396388053894
            ]
        },
        {
            "bufferView": 17,
            "byteOffset": 0,
            "componentType": 5125,
            "count": 54,
            "type": "SCALAR",
            "max": [
                44
            ],
            "min": [
                0
            ]
        },
        {
            "bufferView": 18,
            "byteOffset": 0,
            "componentType": 5126,
            "count": 45,
            "type": "VEC3",
            "max": [
                0.028615999966859819,
                0.028617000207304956,
                0.028617000207304956
            ],
            "min": [
                -0.026882000267505647,
                -0.028615999966859819,
                -0.028617000207304956
            ]
        },
        {
            "bufferView": 19,
            "byteOffset": 0,
            "componentType": 5126,
            "count": 45,
            "type": "VEC3",
            "max": [
                0.9971228241920471,
                0.9971228241920471,
                0.9971228241920471
            ],
            "min": [
                -0.06499737501144409,
                -0.9971120953559876,
                -0.9971228241920471
            ]
        },
        {
            "bufferView": 20,
            "byteOffset": 0,
            "componentType": 5125,
            "count": 54,
            "type": "SCALAR",
            "max": [
                44
            ],
            "min": [
                0
            ]
        }
    ],
    "buffers": [
        {
            "byteLength": 828816,
            "uri": "cube.bin"
        }
    ],
    "bufferViews": [
        {
            "buffer": 0,
            "byteOffset": 0,
            "byteLength": 304464,
            "target": 34962
        },
        {
            "buffer": 0,
            "byteOffset": 304464,
            "byteLength": 304464,
            "target": 34962
        },
        {
            "buffer": 0,
            "byteOffset": 608928,
            "byteLength": 212112,
            "target": 34963
        },
        {
            "buffer": 0,
            "byteOffset": 821040,
            "byteLength": 540,
            "target": 34962
        },
        {
            "buffer": 0,
            "byteOffset": 821580,
            "byteLength": 540,
            "target": 34962
        },
        {
            "buffer": 0,
            "byteOffset": 822120,
            "byteLength": 216,
            "target": 34963
        },
        {
            "buffer": 0,
            "byteOffset": 822336,
            "byteLength": 540,
            "target": 34962
        },
        {
            "buffer": 0,
            "byteOffset": 822876,
            "byteLength": 540,
            "target": 34962
        },
        {
            "buffer": 0,
            "byteOffset": 823416,
            "byteLength": 216,
            "target": 34963
        },
        {
            "buffer": 0,
            "byteOffset": 823632,
            "byteLength": 540,
            "target": 34962
        },
        {
            "buffer": 0,
            "byteOffset": 824172,
            "byteLength": 540,
            "target": 34962
        },
        {
            "buffer": 0,
            "byteOffset": 824712,
            "byteLength": 216,
            "target": 34963
        },
        {
            "buffer": 0,
            "byteOffset": 824928,
            "byteLength": 540,
            "target": 34962
        },
        {
            "buffer": 0,
            "byteOffset": 825468,
            "byteLength": 540,
            "target": 34962
        },
        {
            "buffer": 0,
            "byteOffset": 826008,
            "byteLength": 216,
            "target": 34963
        },
        {
            "buffer": 0,
            "byteOffset": 826224,
            "byteLength": 540,
            "target": 34962
        },
        {
            "buffer": 0,
            "byteOffset": 826764,
            "byteLength": 540,
            "target": 34962
        },
        {
            "buffer": 0,
            "byteOffset": 827304,
            "byteLength": 216,
            "target": 34963
        },
        {
            "buffer": 0,
            "byteOffset": 827520,
            "byteLength": 540,
            "target": 34962
        },
        {
            "buffer": 0,
            "byteOffset": 828060,
            "byteLength": 540,
            "target": 34962
        },
        {
            "buffer": 0,
            "byteOffset": 828600,
            "byteLength": 216,
            "target": 34963
        }
    ],
    "materials": [
        {
            "name": "black.008",
            "pbrMetallicRoughness": {
                "baseColorFactor": [
                    0.800000011920929,
                    0.800000011920929,
                    0.800000011920929,
                    1.0
                ],
                "metallicFactor": 0.0,
                "roughnessFactor": 0.7628291845321655
            },
            "emissiveFactor": [
                0.800000011920929,
                0.800000011920929,
                0.800000011920929
            ]
        },
        {
            "name": "blue.008",
            "pbrMetallicRoughness": {
                "baseColorFactor": [
                    0.800000011920929,
                    0.800000011920929,
                    0.800000011920929,
                    1.0
                ],
                "metallicFactor": 0.0,
                "roughnessFactor": 0.7628291845321655
            },
            "emissiveFactor": [
                0.800000011920929,
                0.800000011920929,
                0.800000011920929
            ]
        },
        {
            "name": "green.008",
            "pbrMetallicRoughness": {
                "baseColorFactor": [
                    0.800000011920929,
                    0.800000011920929,
                    0.800000011920929,
                    1.0
                ],
                "metallicFactor": 0.0,
                "roughnessFactor": 0.7628291845321655
            },
            "emissiveFactor": [
                0.800000011920929,
                0.800000011920929,
                0.800000011920929
            ]
        },
        {
            "name": "orange.008",
            "pbrMetallicRoughness": {
                "baseColorFactor": [
                    0.800000011920929,
                    0.800000011920929,
                    0.800000011920929,
                    1.0
                ],
                "metallicFactor": 0.0,
                "roughnessFactor": 0.7628291845321655
            },
            "emissiveFactor": [
                0.800000011920929,
                0.800000011920929,
                0.800000011920929
            ]
        },
        {
            "name": "red.008",
            "pbrMetallicRoughness": {
                "baseColorFactor": [
                    0.800000011920929,
                    0.800000011920929,
                    0.800000011920929,
                    1.0
                ],
                "metallicFactor": 0.0,
                "roughnessFactor": 0.7628291845321655
            },
            "emissiveFactor": [
                0.800000011920929,
                0.800000011920929,
                0.800000011920929
            ]
        },
        {
            "name": "white.008",
            "pbrMetallicRoughness": {
                "baseColorFactor": [
                    0.800000011920929,
                    0.800000011920929,
                    0.800000011920929,
                    1.0
                ],
                "metallicFactor": 0.0,
                "roughnessFactor": 0.7628291845321655
            },
            "emissiveFactor": [
                0.800000011920929,
                0.800000011920929,
                0.800000011920929
            ]
        },
        {
            "name": "yellow.008",
            "pbrMetallicRoughness": {
                "baseColorFactor": [
                    0.800000011920929,
                    0.800000011920929,
                    0.800000011920929,
                    1.0
                ],
                "metallicFactor": 0.0,
                "roughnessFactor": 0.7628291845321655
            },
            "emissiveFactor": [
                0.800000011920929,
                0.800000011920929,
                0.800000011920929
            ]
        }
    ],
    "meshes": [
        {
            "name": "Plane.042_Plane.002-black.008",
            "primitives": [
                {
                    "mode": 4,
                    "material": 0,
                    "indices": 2,
                    "attributes": {
                        "POSITION": 0,
                        "NORMAL": 1
                    }
                },
                {
                    "mode": 4,
                    "material": 1,
                    "indices": 5,
                    "attributes": {
                        "POSITION": 3,
                        "NORMAL": 4
                    }
                },
                {
                    "mode": 4,
                    "material": 4,
                    "indices": 8,
                    "attributes": {
                        "POSITION": 6,
                        "NORMAL": 7
                    }
                },
                {
                    "mode": 4,
                    "material": 6,
                    "indices": 11,
                    "attributes": {
                        "POSITION": 9,
                        "NORMAL": 10
                    }
                },
                {
                    "mode": 4,
                    "material": 3,
                    "indices": 14,
                    "attributes": {
                        "POSITION": 12,
                        "NORMAL": 13
                    }
                },
                {
                    "mode": 4,
                    "material": 5,
                    "indices": 17,
                    "attributes": {
                        "POSITION": 15,
                        "NORMAL": 16
                    }
                },
                {
                    "mode": 4,
                    "material": 2,
                    "indices": 20,
                    "attributes": {
                        "POSITION": 18,
                        "NORMAL": 19
                    }
                }
            ]
        }
    ],
    "nodes": [
        {
            "name": "Plane.042_Plane.002",
            "mesh": 0
        }
    ],
    "scenes": [
        {
            "nodes": [
                0
            ]
        }
    ],
    "scene": 0
}