{
    "asset": {
        "version": "2.0",
        "generator": "Open Asset Import Library (assimp v5.0.5eb040c7)"
    },
    "accessors": [
        {
            "bufferView": 0,
            "byteOffset": 0,
            "componentType": 5126,
            "count": 33,
            "type": "VEC3",
            "max": [
                2.952375888824463,
                28.938432693481447,
                2.6807119846343996
            ],
            "min": [
                -2.6807241439819338,
                28.938426971435548,
                -2.680712938308716
            ]
        },
        {
            "bufferView": 1,
            "byteOffset": 0,
            "componentType": 5126,
            "count": 33,
            "type": "VEC3",
            "max": [
                -1.7976931348623157e308,
                -1.7976931348623157e308,
                -1.7976931348623157e308
            ],
            "min": [
                1.7976931348623157e308,
                1.7976931348623157e308,
                1.7976931348623157e308
            ]
        },
        {
            "bufferView": 2,
            "byteOffset": 0,
            "componentType": 5126,
            "count": 33,
            "type": "VEC2",
            "max": [
                0.0,
                1.0
            ],
            "min": [
                0.0,
                1.0
            ]
        },
        {
            "bufferView": 3,
            "byteOffset": 0,
            "componentType": 5125,
            "count": 42,
            "type": "SCALAR",
            "max": [
                32
            ],
            "min": [
                0
            ]
        },
        {
            "bufferView": 4,
            "byteOffset": 0,
            "componentType": 5126,
            "count": 3607,
            "type": "VEC3",
            "max": [
                7.423013210296631,
                31.619140625,
                7.42301607131958
            ],
            "min": [
                -7.423017978668213,
                0.0,
                -7.423015117645264
            ]
        },
        {
            "bufferView": 5,
            "byteOffset": 0,
            "componentType": 5126,
            "count": 3607,
            "type": "VEC3",
            "max": [
                1.0,
                1.0,
                1.0
            ],
            "min": [
                -1.0,
                -1.0,
                -1.0
            ]
        },
        {
            "bufferView": 6,
            "byteOffset": 0,
            "componentType": 5126,
            "count": 3607,
            "type": "VEC2",
            "max": [
                0.9983010292053223,
                0.9982550144195557
            ],
            "min": [
                0.0017460000235587359,
                0.011336982250213623
            ]
        },
        {
            "bufferView": 7,
            "byteOffset": 0,
            "componentType": 5125,
            "count": 9048,
            "type": "SCALAR",
            "max": [
                3606
            ],
            "min": [
                0
            ]
        }
    ],
    "buffers": [
        {
            "byteLength": 152840,
            "uri": "result.bin"
        }
    ],
    "bufferViews": [
        {
            "buffer": 0,
            "byteOffset": 0,
            "byteLength": 396,
            "target": 34962
        },
        {
            "buffer": 0,
            "byteOffset": 396,
            "byteLength": 396,
            "target": 34962
        },
        {
            "buffer": 0,
            "byteOffset": 792,
            "byteLength": 264,
            "target": 34962
        },
        {
            "buffer": 0,
            "byteOffset": 1056,
            "byteLength": 168,
            "target": 34963
        },
        {
            "buffer": 0,
            "byteOffset": 1224,
            "byteLength": 43284,
            "target": 34962
        },
        {
            "buffer": 0,
            "byteOffset": 44508,
            "byteLength": 43284,
            "target": 34962
        },
        {
            "buffer": 0,
            "byteOffset": 87792,
            "byteLength": 28856,
            "target": 34962
        },
        {
            "buffer": 0,
            "byteOffset": 116648,
            "byteLength": 36192,
            "target": 34963
        }
    ],
    "materials": [
        {
            "name": "DefaultMaterial",
            "pbrMetallicRoughness": {
                "baseColorFactor": [
                    0.6000000238418579,
                    0.6000000238418579,
                    0.6000000238418579,
                    1.0
                ],
                "metallicFactor": 0.0
            }
        },
        {
            "name": "Building1.001_Baked",
            "pbrMetallicRoughness": {
                "baseColorFactor": [
                    0.6000000238418579,
                    0.6000000238418579,
                    0.6000000238418579,
                    1.0
                ],
                "metallicFactor": 0.0
            }
        }
    ],
    "meshes": [
        {
            "name": "Building1.001_Baked_Sphere.003",
            "primitives": [
                {
                    "mode": 1,
                    "material": 1,
                    "indices": 3,
                    "attributes": {
                        "POSITION": 0,
                        "NORMAL": 1,
                        "TEXCOORD_0": 2
                    }
                },
                {
                    "mode": 4,
                    "material": 1,
                    "indices": 7,
                    "attributes": {
                        "POSITION": 4,
                        "NORMAL": 5,
                        "TEXCOORD_0": 6
                    }
                }
            ]
        }
    ],
    "nodes": [
        {
            "name": "input.obj",
            "children": [
                1
            ]
        },
        {
            "name": "Building1.001_Baked_Sphere.003",
            "mesh": 0
        }
    ],
    "scenes": [
        {
            "nodes": [
                0
            ]
        }
    ],
    "scene": 0
}