{"accessors" : [{"bufferView" : 0, "byteOffset" : 0, "componentType" : 5123, "count" : 3108, "type" : "SCALAR", "max" : [2839], "min" : [0]}, {"bufferView" : 1, "byteOffset" : 0, "componentType" : 5126, "count" : 2840, "type" : "VEC3", "max" : [0.1829557865858078, 0.07473374903202057, 0.11597564816474915], "min" : [-0.18294955790042877, 0.0012157969176769257, -0.11589261144399643], "name" : "POSITION"}, {"bufferView" : 1, "byteOffset" : 12, "componentType" : 5126, "count" : 2840, "type" : "VEC3", "max" : [0.999656617641449, 1.0000042915344238, 0.9998539090156555], "min" : [-0.9996843338012695, -1.0000042915344238, -0.9999497532844543], "name" : "NORMAL"}, {"bufferView" : 1, "byteOffset" : 24, "componentType" : 5126, "count" : 2840, "type" : "VEC2", "max" : [0.8750001192092896, 1], "min" : [0.125, -1.1920928955078125E-07], "name" : "TEXCOORD_0"}, {"bufferView" : 0, "byteOffset" : 6216, "componentType" : 5123, "count" : 1266, "type" : "SCALAR", "max" : [1251], "min" : [0]}, {"bufferView" : 2, "byteOffset" : 0, "componentType" : 5126, "count" : 1252, "type" : "VEC3", "max" : [0.17469216883182526, 0.08028681576251984, 0.11220206320285797], "min" : [-0.1768278032541275, -0.004577472805976868, -0.11179977655410767], "name" : "POSITION"}, {"bufferView" : 2, "byteOffset" : 12, "componentType" : 5126, "count" : 1252, "type" : "VEC3", "max" : [0.9648310542106628, 0.9999819397926331, 0.9950993657112122], "min" : [-0.9990057349205017, -0.9999437928199768, -0.9956793189048767], "name" : "NORMAL"}, {"bufferView" : 2, "byteOffset" : 24, "componentType" : 5126, "count" : 1252, "type" : "VEC2", "max" : [0.8750001192092896, 1], "min" : [0.125, -1.1920928955078125E-07], "name" : "TEXCOORD_0"}, {"bufferView" : 0, "byteOffset" : 8748, "componentType" : 5123, "count" : 2772, "type" : "SCALAR", "max" : [2597], "min" : [0]}, {"bufferView" : 3, "byteOffset" : 0, "componentType" : 5126, "count" : 2598, "type" : "VEC3", "max" : [0.16863279044628143, 0.07680189609527588, 0.10981873422861099], "min" : [-0.1736118644475937, -0.0008523501455783844, -0.06738562881946564], "name" : "POSITION"}, {"bufferView" : 3, "byteOffset" : 12, "componentType" : 5126, "count" : 2598, "type" : "VEC3", "max" : [0.9125891923904419, 0.9781523942947388, 0.9217818379402161], "min" : [-0.945412814617157, -0.9781529307365417, -0.8715114593505859], "name" : "NORMAL"}, {"bufferView" : 3, "byteOffset" : 24, "componentType" : 5126, "count" : 2598, "type" : "VEC2", "max" : [0.7255998849868774, 0.367095947265625], "min" : [0.7230861186981201, 0.3505302667617798], "name" : "TEXCOORD_0"}, {"bufferView" : 0, "byteOffset" : 14292, "componentType" : 5123, "count" : 1020, "type" : "SCALAR", "max" : [1018], "min" : [0]}, {"bufferView" : 4, "byteOffset" : 0, "componentType" : 5126, "count" : 1019, "type" : "VEC3", "max" : [0.17178750038146973, 0.0884193405508995, 0.10610687732696533], "min" : [-0.1717156022787094, -0.012542586773633957, -0.16318373382091522], "name" : "POSITION"}, {"bufferView" : 4, "byteOffset" : 12, "componentType" : 5126, "count" : 1019, "type" : "VEC3", "max" : [0.9989132285118103, 0.9998597502708435, 0.998191773891449], "min" : [-0.9989132285118103, -0.9997805953025818, -0.9982590079307556], "name" : "NORMAL"}, {"bufferView" : 4, "byteOffset" : 24, "componentType" : 5126, "count" : 1019, "type" : "VEC2", "max" : [0.8155720233917236, 1], "min" : [0.39941704273223877, -1.1920928955078125E-07], "name" : "TEXCOORD_0"}, {"bufferView" : 0, "byteOffset" : 16332, "componentType" : 5123, "count" : 132, "type" : "SCALAR", "max" : [131], "min" : [0]}, {"bufferView" : 5, "byteOffset" : 0, "componentType" : 5126, "count" : 132, "type" : "VEC3", "max" : [0.14364568889141083, 0.0818689838051796, -0.08182194828987122], "min" : [-0.14364568889141083, -0.003285179380327463, -0.10088673233985901], "name" : "POSITION"}, {"bufferView" : 5, "byteOffset" : 12, "componentType" : 5126, "count" : 132, "type" : "VEC3", "max" : [0.45152294635772705, 0.9998378157615662, 0.19796232879161835], "min" : [-0.4515231251716614, -0.9928460121154785, -0.5624994039535522], "name" : "NORMAL"}, {"bufferView" : 5, "byteOffset" : 24, "componentType" : 5126, "count" : 132, "type" : "VEC2", "max" : [0.8333256840705872, 0.44935131072998047], "min" : [0.66541588306427, 0.30013924837112427], "name" : "TEXCOORD_0"}, {"bufferView" : 0, "byteOffset" : 16596, "componentType" : 5123, "count" : 4524, "type" : "SCALAR", "max" : [4237], "min" : [0]}, {"bufferView" : 6, "byteOffset" : 0, "componentType" : 5126, "count" : 4238, "type" : "VEC3", "max" : [0.18295574188232422, 0.06343188881874084, 0.23265309631824493], "min" : [-0.18294960260391235, -0.01761310175061226, -0.23265309631824493], "name" : "POSITION"}, {"bufferView" : 6, "byteOffset" : 12, "componentType" : 5126, "count" : 4238, "type" : "VEC3", "max" : [0.999656617641449, 1.0000042915344238, 0.9999496936798096], "min" : [-0.9996842741966248, -1.0000042915344238, -0.9999496936798096], "name" : "NORMAL"}, {"bufferView" : 6, "byteOffset" : 24, "componentType" : 5126, "count" : 4238, "type" : "VEC2", "max" : [0.8750001192092896, 1], "min" : [0, -1.1920928955078125E-07], "name" : "TEXCOORD_0"}, {"bufferView" : 0, "byteOffset" : 25644, "componentType" : 5123, "count" : 1260, "type" : "SCALAR", "max" : [1245], "min" : [0]}, {"bufferView" : 7, "byteOffset" : 0, "componentType" : 5126, "count" : 1246, "type" : "VEC3", "max" : [0.17469212412834167, 0.020505592226982117, 0.22887951135635376], "min" : [-0.17682784795761108, -0.004577472805976868, -0.22887951135635376], "name" : "POSITION"}, {"bufferView" : 7, "byteOffset" : 12, "componentType" : 5126, "count" : 1246, "type" : "VEC3", "max" : [0.9636253118515015, 0.9999437928199768, 0.9950993657112122], "min" : [-0.9990063309669495, -0.9999027252197266, -0.9950993657112122], "name" : "NORMAL"}, {"bufferView" : 7, "byteOffset" : 24, "componentType" : 5126, "count" : 1246, "type" : "VEC2", "max" : [0.8750001192092896, 1], "min" : [0.125, -1.1920928955078125E-07], "name" : "TEXCOORD_0"}, {"bufferView" : 0, "byteOffset" : 28164, "componentType" : 5123, "count" : 2772, "type" : "SCALAR", "max" : [2597], "min" : [0]}, {"bufferView" : 8, "byteOffset" : 0, "componentType" : 5126, "count" : 2598, "type" : "VEC3", "max" : [0.16863274574279785, 0.005323570221662521, 0.22649618983268738], "min" : [-0.17361190915107727, -0.0008523501455783844, -0.22649618983268738], "name" : "POSITION"}, {"bufferView" : 8, "byteOffset" : 12, "componentType" : 5126, "count" : 2598, "type" : "VEC3", "max" : [0.9125892519950867, 0.9781523942947388, 0.9217826128005981], "min" : [-0.9454124569892883, -0.9598731398582458, -0.9217826128005981], "name" : "NORMAL"}, {"bufferView" : 8, "byteOffset" : 24, "componentType" : 5126, "count" : 2598, "type" : "VEC2", "max" : [0.7255998849868774, 0.367095947265625], "min" : [0.7230861186981201, 0.3505302667617798], "name" : "TEXCOORD_0"}, {"bufferView" : 0, "byteOffset" : 33708, "componentType" : 5123, "count" : 240, "type" : "SCALAR", "max" : [199], "min" : [0]}, {"bufferView" : 9, "byteOffset" : 0, "componentType" : 5126, "count" : 200, "type" : "VEC3", "max" : [0.16941827535629272, 0.047684360295534134, 0.21844756603240967], "min" : [-0.16941827535629272, 0.015430331230163574, -0.21844756603240967], "name" : "POSITION"}, {"bufferView" : 9, "byteOffset" : 12, "componentType" : 5126, "count" : 200, "type" : "VEC3", "max" : [1.0000044107437134, 0.9999216198921204, 1.0000044107437134], "min" : [-1.0000044107437134, -1.0000044107437134, -1.0000044107437134], "name" : "NORMAL"}, {"bufferView" : 9, "byteOffset" : 24, "componentType" : 5126, "count" : 200, "type" : "VEC2", "max" : [0.875, 1], "min" : [0.125, 0], "name" : "TEXCOORD_0"}, {"bufferView" : 0, "byteOffset" : 34188, "componentType" : 5123, "count" : 168, "type" : "SCALAR", "max" : [167], "min" : [0]}, {"bufferView" : 10, "byteOffset" : 0, "componentType" : 5126, "count" : 168, "type" : "VEC3", "max" : [0.14258097112178802, -0.0017546787858009338, 0.03332144394516945], "min" : [-0.14258107542991638, -0.003285179380327463, -0.03332144394516945], "name" : "POSITION"}, {"bufferView" : 10, "byteOffset" : 12, "componentType" : 5126, "count" : 168, "type" : "VEC3", "max" : [0.4515220820903778, -0.8710168600082397, 0.19356204569339752], "min" : [-0.4515219032764435, -0.9981732368469238, -0.19356204569339752], "name" : "NORMAL"}, {"bufferView" : 10, "byteOffset" : 24, "componentType" : 5126, "count" : 168, "type" : "VEC2", "max" : [0.8333256840705872, 0.44935131072998047], "min" : [0.669837236404419, 0.30423498153686523], "name" : "TEXCOORD_0"}], "asset" : {"generator" : "Aspose.3D 23.7.0", "version" : "2.0"}, "buffers" : [{"uri" : "data:application/octet-stream;base64,", "byteLength" : 586952}], "bufferViews" : [{"buffer" : 0, "byteOffset" : 0, "byteLength" : 34524, "target" : 34963}, {"buffer" : 0, "byteOffset" : 34528, "byteLength" : 99456, "byteStride" : 32, "target" : 34962}, {"buffer" : 0, "byteOffset" : 133988, "byteLength" : 40512, "byteStride" : 32, "target" : 34962}, {"buffer" : 0, "byteOffset" : 174504, "byteLength" : 88704, "byteStride" : 32, "target" : 34962}, {"buffer" : 0, "byteOffset" : 263212, "byteLength" : 32640, "byteStride" : 32, "target" : 34962}, {"buffer" : 0, "byteOffset" : 295856, "byteLength" : 4224, "byteStride" : 32, "target" : 34962}, {"buffer" : 0, "byteOffset" : 300084, "byteLength" : 144768, "byteStride" : 32, "target" : 34962}, {"buffer" : 0, "byteOffset" : 444856, "byteLength" : 40320, "byteStride" : 32, "target" : 34962}, {"buffer" : 0, "byteOffset" : 485180, "byteLength" : 88704, "byteStride" : 32, "target" : 34962}, {"buffer" : 0, "byteOffset" : 573888, "byteLength" : 7680, "byteStride" : 32, "target" : 34962}, {"buffer" : 0, "byteOffset" : 581572, "byteLength" : 5376, "byteStride" : 32, "target" : 34962}], "materials" : [{"name" : "wood", "pbrMetallicRoughness" : {"baseColorFactor" : [0.13758325576782227, 0.07754862308502197, 0.04048343747854233, 1], "metallicFactor" : 0, "roughnessFactor" : 1}, "emissiveFactor" : [0, 0, 0], "alphaMode" : "OPAQUE", "doubleSided" : true}, {"name" : "wood2", "pbrMetallicRoughness" : {"baseColorFactor" : [0.0822824165225029, 0.04394352436065674, 0.025462813675403595, 1], "metallicFactor" : 0, "roughnessFactor" : 1}, "emissiveFactor" : [0, 0, 0], "alphaMode" : "OPAQUE", "doubleSided" : true}, {"name" : "red", "pbrMetallicRoughness" : {"baseColorFactor" : [0.18446850776672363, 0.04311834275722504, 0.03255989030003548, 1], "metallicFactor" : 0, "roughnessFactor" : 1}, "emissiveFactor" : [0, 0, 0], "alphaMode" : "OPAQUE", "doubleSided" : true}, {"name" : "brown", "pbrMetallicRoughness" : {"baseColorFactor" : [0.2541521489620209, 0.18447497487068176, 0.10461650043725967, 1], "metallicFactor" : 0, "roughnessFactor" : 1}, "emissiveFactor" : [0, 0, 0], "alphaMode" : "OPAQUE", "doubleSided" : true}, {"name" : "dark2", "pbrMetallicRoughness" : {"baseColorFactor" : [0, 0, 0, 1], "metallicFactor" : 0, "roughnessFactor" : 1}, "emissiveFactor" : [0, 0, 0], "alphaMode" : "OPAQUE", "doubleSided" : true}, {"name" : "wood", "pbrMetallicRoughness" : {"baseColorFactor" : [0.13758325576782227, 0.07754862308502197, 0.04048343747854233, 1], "metallicFactor" : 0, "roughnessFactor" : 1}, "emissiveFactor" : [0, 0, 0], "alphaMode" : "OPAQUE", "doubleSided" : true}, {"name" : "wood2", "pbrMetallicRoughness" : {"baseColorFactor" : [0.0822824165225029, 0.04394352436065674, 0.025462813675403595, 1], "metallicFactor" : 0, "roughnessFactor" : 1}, "emissiveFactor" : [0, 0, 0], "alphaMode" : "OPAQUE", "doubleSided" : true}, {"name" : "red", "pbrMetallicRoughness" : {"baseColorFactor" : [0.18446850776672363, 0.04311834275722504, 0.03255989030003548, 1], "metallicFactor" : 0, "roughnessFactor" : 1}, "emissiveFactor" : [0, 0, 0], "alphaMode" : "OPAQUE", "doubleSided" : true}, {"name" : "brown", "pbrMetallicRoughness" : {"baseColorFactor" : [0.2541521489620209, 0.18447497487068176, 0.10461650043725967, 1], "metallicFactor" : 0, "roughnessFactor" : 1}, "emissiveFactor" : [0, 0, 0], "alphaMode" : "OPAQUE", "doubleSided" : true}, {"name" : "dark2", "pbrMetallicRoughness" : {"baseColorFactor" : [0, 0, 0, 1], "metallicFactor" : 0, "roughnessFactor" : 1}, "emissiveFactor" : [0, 0, 0], "alphaMode" : "OPAQUE", "doubleSided" : true}], "meshes" : [{"primitives" : [{"attributes" : {"POSITION" : 1, "NORMAL" : 2, "TEXCOORD_0" : 3}, "indices" : 0, "material" : 0, "mode" : 4}, {"attributes" : {"POSITION" : 5, "NORMAL" : 6, "TEXCOORD_0" : 7}, "indices" : 4, "material" : 1, "mode" : 4}, {"attributes" : {"POSITION" : 9, "NORMAL" : 10, "TEXCOORD_0" : 11}, "indices" : 8, "material" : 2, "mode" : 4}, {"attributes" : {"POSITION" : 13, "NORMAL" : 14, "TEXCOORD_0" : 15}, "indices" : 12, "material" : 3, "mode" : 4}, {"attributes" : {"POSITION" : 17, "NORMAL" : 18, "TEXCOORD_0" : 19}, "indices" : 16, "material" : 4, "mode" : 4}]}, {"primitives" : [{"attributes" : {"POSITION" : 21, "NORMAL" : 22, "TEXCOORD_0" : 23}, "indices" : 20, "material" : 5, "mode" : 4}, {"attributes" : {"POSITION" : 25, "NORMAL" : 26, "TEXCOORD_0" : 27}, "indices" : 24, "material" : 6, "mode" : 4}, {"attributes" : {"POSITION" : 29, "NORMAL" : 30, "TEXCOORD_0" : 31}, "indices" : 28, "material" : 7, "mode" : 4}, {"attributes" : {"POSITION" : 33, "NORMAL" : 34, "TEXCOORD_0" : 35}, "indices" : 32, "material" : 8, "mode" : 4}, {"attributes" : {"POSITION" : 37, "NORMAL" : 38, "TEXCOORD_0" : 39}, "indices" : 36, "material" : 9, "mode" : 4}]}], "nodes" : [{"matrix" : [-1, 0, 3.2584136988589307E-07, 0, 0, 1, 0, 0, -3.2584136988589307E-07, 0, -1, 0, 0, 0, 0.15672913193702698, 1], "mesh" : 0, "name" : "book2"}, {"matrix" : [-1, 0, 3.2584136988589307E-07, 0, 0, 1, 0, 0, -3.2584136988589307E-07, 0, -1, 0, 0, 0, -0.26335692405700684, 1], "mesh" : 1, "name" : "book2 open"}], "scene" : 0, "scenes" : [{"nodes" : [0, 1]}]}